<svg width="400" height="80" viewBox="0 0 400 80" fill="none" xmlns="http://www.w3.org/2000/svg">
<g clip-path="url(#clip0_1_2)">
<path d="M41.6457 4.57143V50.2629C41.6457 59.5657 35.9086 64.5029 26.6057 64.5029C17.3029 64.5029 11.7486 59.5657 11.7486 50.2629V4.57143H-7.62939e-06V50.2629C-7.62939e-06 66.1714 10.2171 74.6514 26.2171 74.7886H26.9943C43.2 74.6743 53.4171 66.1714 53.4171 50.2629V4.57143H41.6457ZM121.349 4.57143V52.2514L90.7429 4.57143H79.7486V73.8286H91.52V26.1257L122.194 73.7829H133.166V4.57143H121.371H121.349ZM159.817 4.57143V73.8286H171.589V14.7429H183.931C190.766 14.7429 195.109 18.0114 195.109 26.8114C195.109 35.6114 190.766 38.9714 183.931 38.9714H177.851L194.423 73.7829H207.977L194.811 47.5886C202.629 44.7086 207.291 38.08 207.291 26.7886C207.291 11.3143 198.354 4.66285 184.709 4.54857H159.794L159.817 4.57143ZM249.92 4.57143L225.783 73.8286H237.44L242.88 57.6H263.886L260.457 47.4057H246.057L256.549 17.0286L275.634 73.8057H288.389L264.229 4.57143H249.897H249.92ZM308.114 73.8286H319.886V4.57143H308.114V73.8286ZM358.354 14.7657H372.891C382.263 14.7657 388.206 19.9086 388.206 29.3943V49.0057C388.206 58.5143 382.263 63.5429 372.686 63.5429H358.354V14.7657ZM346.583 4.59428V73.8286H372.709C389.417 73.8286 400 65.2343 400 49.0057V29.4171C400 13.3257 389.577 4.73143 373.28 4.57143H346.583V4.59428Z" fill="url(#paint0_linear_1_2)"/>
</g>
<defs>
<linearGradient id="paint0_linear_1_2" x1="-7.62939e-06" y1="4.54857" x2="400" y2="4.54857" gradientUnits="userSpaceOnUse">
<stop stop-color="#BD93F9"/>
<stop offset="1" stop-color="#FF79C6"/>
</linearGradient>
<clipPath id="clip0_1_2">
<rect width="400" height="80" fill="white"/>
</clipPath>
</defs>
</svg>
